<svg width="30" height="30" viewBox="0 0 30 30" fill="none" xmlns="http://www.w3.org/2000/svg">
<path d="M6.09375 29.0625H4.21875C3.84579 29.0625 3.4881 28.9143 3.22438 28.6506C2.96066 28.3869 2.8125 28.0292 2.8125 27.6562V19.2188C2.8125 18.8458 2.96066 18.4881 3.22438 18.2244C3.4881 17.9607 3.84579 17.8125 4.21875 17.8125H6.09375C6.46671 17.8125 6.8244 17.9607 7.08812 18.2244C7.35184 18.4881 7.5 18.8458 7.5 19.2188V27.6562C7.5 28.0292 7.35184 28.3869 7.08812 28.6506C6.8244 28.9143 6.46671 29.0625 6.09375 29.0625ZM19.2188 29.0625H17.3438C16.9708 29.0625 16.6131 28.9143 16.3494 28.6506C16.0857 28.3869 15.9375 28.0292 15.9375 27.6562V13.5938C15.9375 13.2208 16.0857 12.8631 16.3494 12.5994C16.6131 12.3357 16.9708 12.1875 17.3438 12.1875H19.2188C19.5917 12.1875 19.9494 12.3357 20.2131 12.5994C20.4768 12.8631 20.625 13.2208 20.625 13.5938V27.6562C20.625 28.0292 20.4768 28.3869 20.2131 28.6506C19.9494 28.9143 19.5917 29.0625 19.2188 29.0625ZM25.7812 29.0625H23.9062C23.5333 29.0625 23.1756 28.9143 22.9119 28.6506C22.6482 28.3869 22.5 28.0292 22.5 27.6562V7.03125C22.5 6.65829 22.6482 6.3006 22.9119 6.03688C23.1756 5.77316 23.5333 5.625 23.9062 5.625H25.7812C26.1542 5.625 26.5119 5.77316 26.7756 6.03688C27.0393 6.3006 27.1875 6.65829 27.1875 7.03125V27.6562C27.1875 28.0292 27.0393 28.3869 26.7756 28.6506C26.5119 28.9143 26.1542 29.0625 25.7812 29.0625ZM12.6562 29.0625H10.7812C10.4083 29.0625 10.0506 28.9143 9.78688 28.6506C9.52316 28.3869 9.375 28.0292 9.375 27.6562V2.34375C9.375 1.97079 9.52316 1.6131 9.78688 1.34938C10.0506 1.08566 10.4083 0.9375 10.7812 0.9375H12.6562C13.0292 0.9375 13.3869 1.08566 13.6506 1.34938C13.9143 1.6131 14.0625 1.97079 14.0625 2.34375V27.6562C14.0625 28.0292 13.9143 28.3869 13.6506 28.6506C13.3869 28.9143 13.0292 29.0625 12.6562 29.0625Z" fill="#F4F4F6"/>
</svg>
