<svg width="30" height="30" viewBox="0 0 30 30" fill="none" xmlns="http://www.w3.org/2000/svg">
<path fill-rule="evenodd" clip-rule="evenodd" d="M6 18C6 13 9 8.5 15 3C21 8.5 24 13 24 18C24 20.3869 23.0518 22.6761 21.364 24.364C19.6761 26.0518 17.3869 27 15 27C12.6131 27 10.3239 26.0518 8.63604 24.364C6.94821 22.6761 6 20.3869 6 18ZM21.904 16.606C19.346 15.642 16.576 16.926 13.98 18.126C11.866 19.102 9.868 20.026 8.194 19.644C8.06472 19.1056 7.9996 18.5537 8 18C8 14.224 10.054 10.544 15 5.748C19.336 9.952 21.45 13.298 21.904 16.606Z" fill="#F4F4F6"/>
</svg>
