<svg width="30" height="30" viewBox="0 0 30 30" fill="none" xmlns="http://www.w3.org/2000/svg">
<g clip-path="url(#clip0_182_179)">
<path fill-rule="evenodd" clip-rule="evenodd" d="M13.75 3.02922C14.0975 2.82866 14.488 2.71465 14.8888 2.69681C15.2895 2.67897 15.6887 2.75783 16.0525 2.92672L16.25 3.02922L20.4125 5.43172C20.7626 5.63392 21.0584 5.91799 21.2746 6.25957C21.4908 6.60115 21.6209 6.99007 21.6538 7.39297L21.6625 7.59672V12.4042L25.825 14.8067C26.1753 15.0088 26.4714 15.2928 26.6878 15.6344C26.9042 15.976 27.0345 16.365 27.0675 16.768L27.075 16.9717V21.7792C27.0751 22.1832 26.9771 22.5812 26.7897 22.9391C26.6023 23.297 26.3309 23.6041 25.9988 23.8342L25.825 23.9442L21.6625 26.3467C21.3151 26.5473 20.9246 26.6613 20.5238 26.6791C20.1231 26.697 19.7239 26.6181 19.36 26.4492L19.1625 26.3467L15 23.9442L10.8375 26.3467C10.49 26.5475 10.0992 26.6616 9.6982 26.6795C9.29721 26.6973 8.89782 26.6183 8.5338 26.4492L8.33755 26.3467L4.17505 23.9442C3.82517 23.7421 3.52948 23.4583 3.3133 23.1169C3.09713 22.7756 2.96691 22.3869 2.9338 21.9842L2.92505 21.7792V16.9717C2.92505 16.5677 3.02295 16.1697 3.21039 15.8118C3.39783 15.4539 3.66921 15.1468 4.0013 14.9167L4.17505 14.8067L8.33755 12.4042V7.59672C8.33755 7.19272 8.43545 6.79473 8.62289 6.43684C8.81033 6.07894 9.08171 5.77181 9.4138 5.54172L9.58755 5.43172L13.75 3.02922ZM13.75 18.4167L10.8375 20.0967V23.4592L13.75 21.7805V18.4167ZM16.25 18.4167V21.7792L19.1625 23.4605V20.098L16.25 18.4167ZM24.575 18.4167L21.6625 20.0967V23.4605L24.575 21.7792V18.4167ZM5.42505 18.4155V21.778L8.33755 23.4605V20.098L5.42505 18.4155ZM20.4125 14.5692L17.5 16.2505L20.4125 17.9317L23.325 16.2505L20.4125 14.5692ZM9.58755 14.5692L6.67505 16.2505L9.58755 17.9317L12.5 16.2505L9.58755 14.5692ZM19.1625 9.04047L16.25 10.7217V14.0855L19.1625 12.4042V9.04047ZM10.8375 9.04047V12.403L13.75 14.0867V10.7242L10.8375 9.04047ZM15 5.19422L12.0875 6.87547L15 8.55672L17.9125 6.87547L15 5.19422Z" fill="#F4F4F6"/>
</g>
<defs>
<clipPath id="clip0_182_179">
<rect width="30" height="30" fill="white"/>
</clipPath>
</defs>
</svg>
